<?xml version="1.0" encoding="UTF-8"?>
<svg id="Layer_1" data-name="Layer 1" xmlns="http://www.w3.org/2000/svg" version="1.1" viewBox="0 0 191.62 48.91">
  <defs>
    <style>
      .cls-1 {
        fill: #e5ad29;
      }

      .cls-1, .cls-2 {
        stroke-width: 0px;
      }

      .cls-2 {
        fill: #fff;
      }
    </style>
  </defs>
  <path class="cls-1" d="M28.97,1.71H1.6v19.33h22.6v7.63H1.6v19.32h30.02v-12.93H14.53v-3.74h12.32v-12.93h-12.32v-3.75h17.09V1.71h-2.65ZM12.38,37.71h16.59v7.63H4.25v-14.02h7.63v6.39h.5ZM28.97,11.99H11.88v6.4h-7.63V4.36h24.72v7.63Z"/>
  <path class="cls-1" d="M99.28,14.64V1.71h-30.02v19.32h22.6v7.63h-22.6v19.32h12.92v-16.67h12.33v-12.93h-12.33v-3.75h17.09ZM79.53,45.34h-7.62v-14.02h7.62v14.02ZM79.54,11.99v6.4h-7.63V4.36h24.72v7.63h-17.09Z"/>
  <path class="cls-1" d="M65.66,14.64V1.71h-30.02v19.32h22.6v7.63h-22.6v19.32h12.92v-16.67h12.33v-12.93h-12.33v-3.75h17.09ZM45.91,45.34h-7.62v-14.02h7.62v14.02ZM45.92,11.99v6.4h-7.63V4.36h24.72v7.63h-17.09Z"/>
  <g>
    <path class="cls-2" d="M102.69,27.14l-.44-1.02h-2.14l-.44,1.02h-1.01l2.11-4.59h.81l2.11,4.59h-.99ZM100.44,25.36h1.48l-.74-1.72-.74,1.72Z"/>
    <path class="cls-2" d="M104.72,22.56h1.77c.5,0,.93.09,1.29.27.36.18.64.44.83.79.19.34.29.75.29,1.23s-.09.89-.28,1.24-.46.61-.82.79c-.36.18-.79.27-1.3.27h-1.77v-4.59ZM106.42,26.33c.98,0,1.47-.5,1.47-1.49s-.49-1.47-1.47-1.47h-.7v2.96h.7Z"/>
    <path class="cls-2" d="M113.56,22.56h1.01l-2.06,4.59h-.8l-2.06-4.59h1.04l1.43,3.33,1.44-3.33Z"/>
    <path class="cls-2" d="M115.57,27.14v-4.59h3.16v.78h-2.18v1.08h2.05v.79h-2.05v1.16h2.18v.78h-3.16Z"/>
    <path class="cls-2" d="M123.94,27.14h-1.06l-.59-1.53c-.05-.12-.12-.2-.22-.25-.1-.05-.22-.07-.36-.07h-.65v1.85h-.99v-4.59h2.04c.53,0,.94.12,1.21.35s.41.56.41,1c0,.31-.08.57-.24.79s-.39.38-.69.47c.27.06.47.24.59.56l.55,1.42ZM121.97,24.53c.29,0,.5-.05.63-.14.13-.1.2-.25.2-.45s-.07-.36-.2-.45c-.13-.1-.34-.15-.63-.15h-.91v1.2h.91Z"/>
    <path class="cls-2" d="M126.21,27.14v-3.77h-1.44v-.82h3.89v.82h-1.44v3.77h-1.02Z"/>
    <path class="cls-2" d="M129.84,27.14v-4.59h1v4.59h-1Z"/>
    <path class="cls-2" d="M133.01,27.06c-.32-.09-.59-.22-.8-.39l.32-.72c.44.31.94.46,1.48.46.29,0,.52-.05.67-.14.16-.09.24-.22.24-.39,0-.15-.07-.26-.22-.34s-.4-.16-.76-.24c-.4-.08-.72-.18-.96-.3s-.41-.26-.52-.43c-.11-.17-.16-.38-.16-.63,0-.27.08-.52.23-.74.15-.22.37-.39.64-.51.27-.12.59-.18.95-.18.33,0,.64.05.94.14.3.09.54.22.72.39l-.32.72c-.4-.31-.85-.46-1.33-.46-.26,0-.46.05-.62.15s-.23.24-.23.42c0,.1.03.19.09.26.06.07.16.13.29.18.14.05.33.11.59.16.59.13,1.01.3,1.27.5.26.21.39.49.39.84,0,.43-.17.77-.5,1.02-.33.25-.8.38-1.4.38-.35,0-.68-.05-1-.14Z"/>
    <path class="cls-2" d="M137.28,27.14v-4.59h1v4.59h-1Z"/>
    <path class="cls-2" d="M142.88,22.56h.95v4.59h-.75l-2.29-2.92v2.92h-.94v-4.59h.74l2.29,2.92v-2.92Z"/>
    <path class="cls-2" d="M149.32,24.61v2.25c-.22.11-.48.19-.78.25-.3.06-.6.09-.92.09-.49,0-.91-.09-1.26-.28-.36-.19-.63-.46-.82-.81-.19-.35-.29-.77-.29-1.26s.1-.89.29-1.24c.19-.35.46-.62.81-.81s.76-.29,1.23-.29c.33,0,.64.05.92.14.29.09.52.22.71.38l-.32.72c-.21-.15-.42-.27-.62-.33-.2-.07-.42-.1-.66-.1-.88,0-1.33.52-1.33,1.55s.46,1.58,1.38,1.58c.25,0,.51-.03.76-.1v-1.01h-.9v-.7h1.8Z"/>
  </g>
  <g>
    <path class="cls-1" d="M146.81,21.04h-13.35c-.39-.97-.92-1.85-1.56-2.65-1.88-2.29-4.72-3.75-7.91-3.75s-6.04,1.46-7.91,3.75c-.64.8-1.17,1.68-1.56,2.65h-2.82c.29-.93.69-1.82,1.17-2.65,2.22-3.83,6.37-6.4,11.11-6.4s8.89,2.57,11.11,6.4h8.34c-2.7-8.15-10.39-14.03-19.45-14.03s-16.75,5.88-19.45,14.03c-.29.86-.52,1.74-.69,2.65h-2.69c.14-.9.35-1.79.6-2.65,2.8-9.64,11.69-16.68,22.22-16.68s19.42,7.04,22.22,16.68c.25.86.45,1.74.6,2.65Z"/>
    <path class="cls-1" d="M146.81,28.67c-.15.9-.35,1.79-.6,2.65-2.8,9.63-11.69,16.67-22.22,16.67s-19.42-7.04-22.22-16.67c-.26-.86-.45-1.74-.6-2.65h13.35c.39.97.92,1.86,1.56,2.65,1.88,2.29,4.72,3.74,7.91,3.74s6.03-1.46,7.91-3.74c.65-.79,1.18-1.68,1.56-2.65h2.81c-.29.93-.68,1.82-1.17,2.65-2.23,3.83-6.37,6.39-11.11,6.39s-8.88-2.57-11.11-6.39h-8.34c2.71,8.15,10.4,14.02,19.45,14.02s16.74-5.87,19.45-14.02c.29-.86.52-1.74.69-2.65h2.69Z"/>
  </g>
  <path class="cls-1" d="M189.38,45.34l-9.54-17.72c3.08-2.7,5.02-6.68,5.02-11.1,0-4.09-1.66-7.79-4.34-10.47-2.68-2.68-6.38-4.34-10.47-4.34h-19.12s0,0,0,0v19.32h19.12c2.5,0,4.52-2.02,4.52-4.52s-2.02-4.52-4.52-4.52h-8.84v6.4h-7.63V4.36h16.47c6.72,0,12.15,5.44,12.15,12.15,0,3.36-1.36,6.4-3.56,8.6-.04.04-.07.07-.11.1-.64.63-1.35,1.18-2.12,1.66l1.26,2.33,8.67,16.14h-8.65l-7.54-14.02-1.42-2.65h-4.88s-2.65,0-2.65,0h0s-7.63,0-7.63,0h0s-2.65,0-2.65,0v19.32h0s2.65,0,2.65,0h0s7.63,0,7.63,0h0s2.65,0,2.65,0v-16.67h3.3l7.54,14.02,1.43,2.65h14.67l-1.42-2.65ZM163.87,14.64h6.19c1.03,0,1.88.84,1.88,1.88s-.84,1.88-1.88,1.88h-6.19v-3.75ZM161.22,45.34h-7.63v-14.02h7.63v14.02Z"/>
</svg>