<?xml version="1.0" encoding="UTF-8"?>
<svg id="Layer_1" data-name="Layer 1" xmlns="http://www.w3.org/2000/svg" version="1.1" viewBox="0 0 800 800">
  <defs>
    <style>
      .cls-1 {
        fill: #fff;
        stroke-width: 0px;
      }
    </style>
  </defs>
  <path class="cls-1" d="M421.3,573.3c-5.5,6-13.2,9.4-21.3,9.4s-15.8-3.4-21.3-9.4l-153.8-168.3c-10.7-11.8-9.9-30,1.8-40.8,11.8-10.7,30-9.9,40.8,1.8l103.7,113.4V53.8c0-15.9,12.9-28.8,28.8-28.8s28.8,12.9,28.8,28.8v425.7l103.7-113.4c10.7-11.8,29-12.6,40.8-1.8s12.6,29,1.8,40.8l-153.8,168.3Z"/>
  <path class="cls-1" d="M82.7,515.4c0-15.9-12.9-28.8-28.8-28.8s-28.8,12.9-28.8,28.8v2.1c0,52.6,0,95,4.5,128.3,4.7,34.6,14.6,63.8,37.8,86.9,23.2,23.2,52.3,33.1,86.9,37.8,33.3,4.5,75.7,4.5,128.3,4.5h235c52.6,0,95,0,128.3-4.5,34.6-4.7,63.8-14.6,86.9-37.8s33.1-52.3,37.8-86.9c4.5-33.3,4.5-75.7,4.5-128.3v-2.1c0-15.9-12.9-28.8-28.8-28.8s-28.8,12.9-28.8,28.8c0,55.2,0,93.7-4,122.8-3.8,28.2-10.7,43.2-21.4,53.8s-25.6,17.6-53.8,21.4c-29.1,3.9-67.6,4-122.8,4h-230.8c-55.2,0-93.7,0-122.8-4-28.2-3.8-43.2-10.7-53.8-21.4s-17.6-25.6-21.4-53.8c-3.9-29.1-4-67.6-4-122.8Z"/>
</svg>