<?xml version="1.0" encoding="UTF-8"?>
<svg id="Layer_1" data-name="Layer 1" xmlns="http://www.w3.org/2000/svg" version="1.1" viewBox="0 0 800 800">
  <defs>
    <style>
      .cls-1 {
        fill: #c93;
        stroke-width: 0px;
      }
    </style>
  </defs>
  <path class="cls-1" d="M400,0C179.1,0,0,179.1,0,400s179.1,400,400,400,400-179.1,400-400S620.9,0,400,0ZM488.3,332.2l-4.5,59.8h-61.4v207.8h-77.5v-207.8h-41.4v-59.8h41.4v-40.2c0-17.7.5-45,13.3-62,13.6-18,32.2-30.2,64.2-30.2,52.2,0,74.1,7.5,74.1,7.5l-10.3,61.3s-17.2-5-33.3-5-30.5,5.8-30.5,21.9v46.7h65.9Z"/>
</svg>