<?xml version="1.0" encoding="UTF-8"?>
<svg id="Layer_1" data-name="Layer 1" xmlns="http://www.w3.org/2000/svg" version="1.1" viewBox="0 0 800 800">
  <defs>
    <style>
      .cls-1 {
        fill: #c93;
        stroke-width: 0px;
      }
    </style>
  </defs>
  <path class="cls-1" d="M400,470.3c38.8,0,70.5-31.6,70.5-70.5s-5-29.5-13.3-41.1c-12.8-17.7-33.6-29.4-57-29.4s-44.2,11.6-57,29.4c-8.3,11.6-13.3,25.8-13.3,41.1-.2,38.9,31.4,70.5,70.2,70.5Z"/>
  <polygon class="cls-1" points="553.7 313.9 553.7 254.8 553.7 246.1 545 246.1 485.9 246.3 486.2 314.1 553.7 313.9"/>
  <path class="cls-1" d="M509.4,400c0,60.3-49.1,109.4-109.4,109.4s-109.4-49.1-109.4-109.4,3-28.4,8.1-41.1h-59.7v163.7c0,21.1,17.2,38.3,38.3,38.3h245.3c21.1,0,38.3-17.2,38.3-38.3v-163.7h-59.7c5.3,12.7,8.1,26.6,8.1,41.1Z"/>
  <path class="cls-1" d="M400,0C179.1,0,0,179.1,0,400s179.1,400,400,400,400-179.1,400-400S620.9,0,400,0ZM600,358.9v163.7c0,42.7-34.7,77.3-77.3,77.3h-245.3c-42.7,0-77.3-34.7-77.3-77.3v-245.5c0-42.7,34.7-77.3,77.3-77.3h245.3c42.7,0,77.3,34.7,77.3,77.3v81.7Z"/>
</svg>