<?xml version="1.0" encoding="UTF-8"?>
<svg id="Layer_1" data-name="Layer 1" xmlns="http://www.w3.org/2000/svg" version="1.1" viewBox="0 0 800 800">
  <defs>
    <style>
      .cls-1 {
        fill: #c93;
        stroke-width: 0px;
      }
    </style>
  </defs>
  <path class="cls-1" d="M400,0C179.1,0,0,179.1,0,400s179.1,400,400,400,400-179.1,400-400S620.9,0,400,0ZM288.1,567.3h-78v-249.5h78v249.5ZM247,286.6h-.6c-28.3,0-46.6-19.1-46.6-43.3s18.9-43.3,47.7-43.3,46.4,18.6,47,43.3c.2,24.1-18.1,43.3-47.5,43.3ZM600,567.3h-88.4v-129.1c0-33.8-13.8-56.9-44.2-56.9s-36.2,15.6-42.2,30.6c-2.2,5.3-1.9,12.8-1.9,20.5v134.8h-87.7s1.1-228.7,0-249.5h87.7v39.2c5.2-17.2,33.1-41.6,77.8-41.6s98.9,35.9,98.9,113.1v138.7Z"/>
</svg>