<?xml version="1.0" encoding="UTF-8"?>
<svg id="Layer_1" data-name="Layer 1" xmlns="http://www.w3.org/2000/svg" version="1.1" viewBox="0 0 634 514">
  <defs>
    <style>
      .cls-1 {
        fill: #fff;
        fill-rule: evenodd;
        stroke-width: 0px;
      }
    </style>
  </defs>
  <path class="cls-1" d="M52.3,23.7c-18.4,0-33.3,14.9-33.3,33.3s14.9,33.3,33.3,33.3h533.3c18.4,0,33.3-14.9,33.3-33.3s-14.9-33.3-33.3-33.3H52.3ZM152.3,257c0-18.4,14.9-33.3,33.3-33.3h400c18.4,0,33.3,14.9,33.3,33.3s-14.9,33.3-33.3,33.3H185.7c-18.4,0-33.3-14.9-33.3-33.3ZM352.3,457c0-18.4,14.9-33.3,33.3-33.3h200c18.4,0,33.3,14.9,33.3,33.3s-14.9,33.3-33.3,33.3h-200c-18.4,0-33.3-14.9-33.3-33.3Z"/>
</svg>