<?xml version="1.0" encoding="UTF-8"?>
<svg id="Layer_1" data-name="Layer 1" xmlns="http://www.w3.org/2000/svg" version="1.1" viewBox="0 0 800 800">
  <defs>
    <style>
      .cls-1 {
        fill: #c93;
        stroke-width: 0px;
      }
    </style>
  </defs>
  <path class="cls-1" d="M400,0C179.1,0,0,179.1,0,400s179.1,400,400,400,400-179.1,400-400S620.9,0,400,0ZM559.7,337.8c.2,3.4.2,7,.2,10.6,0,108.6-82.7,233.9-233.9,233.9s-89.7-13.6-125.9-36.9c6.4.8,13,1.1,19.7,1.1,38.4,0,73.9-13.1,102-35.2-35.9-.6-66.4-24.4-76.7-57,5,.9,10.2,1.4,15.5,1.4s14.8-.9,21.7-3c-37.7-7.5-65.9-40.8-65.9-80.6v-.9c11.1,6.1,23.8,9.8,37.2,10.3-22-14.7-36.6-40-36.6-68.4s4.1-29.2,11.1-41.4c40.6,49.8,101.1,82.5,169.4,85.9-1.4-5.9-2.2-12.2-2.2-18.8,0-45.3,36.9-82.2,82.2-82.2s45,10,60,25.9c18.8-3.7,36.2-10.5,52.2-20-6.1,19.2-19.2,35.3-36.1,45.5,16.6-2,32.5-6.4,47.2-13-10.9,16.6-24.8,30.9-40.9,42.7Z"/>
</svg>