<?xml version="1.0" encoding="UTF-8"?>
<svg id="Layer_1" data-name="Layer 1" xmlns="http://www.w3.org/2000/svg" version="1.1" viewBox="0 0 800 800">
  <defs>
    <style>
      .cls-1 {
        fill: #c93;
        fill-rule: evenodd;
        stroke-width: 0px;
      }
    </style>
  </defs>
  <g id="Page-1">
    <g id="Dribbble-Light-Preview">
      <g id="icons">
        <path id="whatsapp-_128_" data-name="whatsapp-[#128]" class="cls-1" d="M632.8,564.8c-9.6,27.3-48,49.9-78.5,56.5-20.9,4.4-48.2,8-140.1-30.1-103.2-42.8-246.6-195.1-246.6-296.5s29.8-111.7,81.8-111.7,30.6.5,38.8,20.3c9.6,23.3,33.2,80.7,36,86.5,11.6,24.1-11.8,38.2-28.7,59.3-5.4,6.3-11.5,13.2-4.7,24.9,6.8,11.5,30.3,49.9,64.9,80.6,44.6,39.8,80.8,52.5,93.8,57.9,9.6,4,21.2,3.1,28.2-4.5,8.9-9.6,20-25.6,31.3-41.4,8-11.3,18.1-12.7,28.7-8.7,7.2,2.5,98.2,44.7,102,51.5,2.8,4.9,2.8,28.2-6.8,55.5M400.1,0h-.2C179.4,0,0,179.4,0,400s28.2,168.6,76.2,234.4l-49.8,148.6,153.7-49.1c63.2,41.9,138.7,66.1,220,66.1,220.5,0,399.9-179.4,399.9-400S620.6,0,400.1,0"/>
      </g>
    </g>
  </g>
</svg>