<?xml version="1.0" encoding="UTF-8"?>
<svg id="Layer_1" data-name="Layer 1" xmlns="http://www.w3.org/2000/svg" version="1.1" viewBox="0 0 800 800">
  <defs>
    <style>
      .cls-1 {
        fill: #fff;
        stroke-width: 0px;
      }
    </style>
  </defs>
  <path class="cls-1" d="M661.9,134.5c-34.3-34.5-75.1-61.9-120-80.5-44.9-18.6-93.1-28.1-141.8-27.9-65,0-128.9,17.2-185.2,49.7-56.3,32.5-103.1,79.3-135.7,135.6-32.6,56.3-49.8,120.2-49.9,185.2-.1,65,16.8,129,49.2,185.4l-52.4,192.1,196.3-51.4c54.2,30.2,115.1,46.2,177.2,46.7,98.6,0,193.3-39,263.3-108.4,70-69.4,109.8-163.7,110.7-262.3-.3-49.2-10.4-97.9-29.5-143.2-19.2-45.3-47.1-86.4-82.2-120.9ZM400.1,705.3c-55.3,0-109.5-14.8-157.1-43l-11.2-7-116.4,30.9,30.9-113.6-7.5-11.7c-39.8-64.2-54.6-140.8-41.7-215.2,12.9-74.4,52.6-141.5,111.7-188.6,59.1-47.1,133.3-70.9,208.7-66.8,75.4,4,146.7,35.6,200.5,88.7,58.7,57.4,92.3,135.7,93.5,217.9-.7,82.1-33.9,160.6-92.2,218.3-58.3,57.8-137.1,90.2-219.2,90.2ZM568.8,474.3c-9.3-4.7-54.7-27.1-63.1-29.9-8.4-2.8-15-4.7-21,4.7-9.1,12.5-19,24.5-29.5,36-5.1,6.5-10.8,7-20.1,0-53.3-21.1-97.7-59.9-125.8-109.9-9.8-16.4,9.3-15.4,27.1-50.5,1.3-2.5,2-5.3,2-8.2s-.7-5.7-2-8.2c0-4.7-21-50.5-28.5-68.7-7.5-18.2-15-15.4-21-15.9h-18.2c-4.7,0-9.4,1.2-13.7,3.2s-8.1,4.9-11.1,8.5c-10.5,10.2-18.7,22.5-24,36.2-5.3,13.6-7.7,28.2-6.9,42.8,2.9,35,16.1,68.3,37.9,95.8,39.8,59.6,94.4,108,158.5,140.2,33.6,19.6,72.6,27.8,111.3,23.4,12.9-2.6,25.1-7.8,35.8-15.4,10.7-7.6,19.7-17.3,26.4-28.6,6.2-13.8,8.2-29.1,5.6-43.9-4.2-4.7-10.3-7-19.6-11.7Z"/>
</svg>