<?xml version="1.0" encoding="utf-8"?>
<!-- Generator: Adobe Illustrator 28.3.0, SVG Export Plug-In . SVG Version: 6.00 Build 0)  -->
<svg version="1.1" id="Capa_1" xmlns="http://www.w3.org/2000/svg" xmlns:xlink="http://www.w3.org/1999/xlink" x="0px" y="0px"
	 viewBox="0 0 512 512" style="enable-background:new 0 0 512 512;" xml:space="preserve">
<style type="text/css">
	.st0{fill-rule:evenodd;clip-rule:evenodd;fill:#FFFFFF;}
</style>
<g id="WA_Logo">
	<g>
		<path class="st0" d="M436.5,74.4C388.6,26.5,324.9,0,257.1,0C117.2,0,3.4,113.8,3.3,253.7c0,44.7,11.7,88.4,33.9,126.8L1.2,512
			l134.5-35.3c37.1,20.2,78.8,30.9,121.2,30.9h0.1c139.8,0,253.7-113.8,253.7-253.7C510.8,186.1,484.4,122.3,436.5,74.4z
			 M257.1,464.7L257.1,464.7c-37.9,0-75-10.2-107.4-29.4l-7.7-4.6l-79.8,20.9l21.3-77.8l-5-8c-21.1-33.6-32.3-72.4-32.2-112.2
			c0-116.3,94.7-210.9,211-210.9c56.3,0,109.3,22,149.1,61.8c39.8,39.9,61.7,92.8,61.7,149.2C467.9,370.2,373.3,464.7,257.1,464.7z
			 M372.7,306.8c-6.3-3.2-37.5-18.5-43.3-20.6c-5.8-2.1-10-3.2-14.3,3.2s-16.4,20.6-20.1,24.9c-3.7,4.2-7.4,4.8-13.7,1.6
			c-6.3-3.2-26.8-9.9-51-31.5c-18.8-16.8-31.6-37.6-35.3-43.9c-3.7-6.4-0.4-9.8,2.8-12.9c2.9-2.8,6.3-7.4,9.5-11.1
			c3.2-3.7,4.2-6.3,6.4-10.6c2.1-4.2,1.1-7.9-0.5-11.1c-1.6-3.2-14.3-34.4-19.5-47.1c-5.1-12.4-10.4-10.7-14.3-10.9
			c-3.7-0.2-7.9-0.2-12.2-0.2c-4.2,0-11.1,1.6-16.9,7.9c-5.8,6.4-22.2,21.7-22.2,52.9c0,31.2,22.7,61.4,25.9,65.6
			c3.2,4.2,44.7,68.3,108.3,95.7c15.1,6.5,26.9,10.4,36.1,13.4c15.2,4.8,29,4.1,39.9,2.5c12.2-1.8,37.5-15.3,42.8-30.1
			s5.3-27.5,3.7-30.1C383.3,311.6,379.1,310,372.7,306.8z"/>
	</g>
</g>
</svg>
